<svg width="24" height="24" viewBox="0 0 24 24" fill="none" xmlns="http://www.w3.org/2000/svg">
<g id="vuesax/bold/arrow-2">
<g id="arrow-2">
<path id="Vector" d="M6.72995 2.25C6.52995 2.25 6.33995 2.33 6.19995 2.47L2.47995 6.19C2.18995 6.48 2.18995 6.96 2.47995 7.25C2.76995 7.54 3.24995 7.54 3.53995 7.25L5.98995 4.8L5.98995 21C5.98995 21.41 6.32995 21.75 6.73995 21.75C7.14995 21.75 7.47995 21.41 7.47995 21L7.47995 4.81L9.91995 7.25C10.21 7.54 10.69 7.54 10.98 7.25C11.13 7.1 11.2 6.91 11.2 6.72C11.2 6.53 11.13 6.34 10.98 6.19L7.26995 2.48C7.19995 2.41 7.10995 2.35 7.00995 2.31C6.99995 2.31 6.98995 2.31 6.97995 2.3C6.89995 2.27 6.81995 2.25 6.72995 2.25Z" fill="#308CFB"/>
<path id="Vector_2" d="M16.52 3V19.19L14.08 16.75C13.79 16.46 13.31 16.46 13.02 16.75C12.73 17.04 12.73 17.52 13.02 17.81L16.73 21.52C16.8 21.59 16.89 21.65 16.99 21.69C17 21.69 17.01 21.69 17.02 21.7C17.1 21.73 17.19 21.75 17.28 21.75C17.48 21.75 17.67 21.67 17.81 21.53L21.53 17.81C21.68 17.66 21.75 17.47 21.75 17.28C21.75 17.09 21.68 16.9 21.53 16.75C21.24 16.46 20.76 16.46 20.47 16.75L18.02 19.2V3C18.02 2.59 17.68 2.25 17.27 2.25C16.86 2.25 16.52 2.59 16.52 3Z" fill="#308CFB"/>
</g>
</g>
</svg>
