<svg width="28" height="28" viewBox="0 0 28 28" fill="none" xmlns="http://www.w3.org/2000/svg">
<g id="bus">
<path id="Vector" d="M4.66671 19.8333C4.66671 20.4521 4.91254 21.0456 5.35012 21.4832C5.78771 21.9208 6.3812 22.1666 7.00004 22.1666C7.61888 22.1666 8.21237 21.9208 8.64996 21.4832C9.08754 21.0456 9.33337 20.4521 9.33337 19.8333M4.66671 19.8333C4.66671 19.2144 4.91254 18.6209 5.35012 18.1833C5.78771 17.7458 6.3812 17.4999 7.00004 17.4999C7.61888 17.4999 8.21237 17.7458 8.64996 18.1833C9.08754 18.6209 9.33337 19.2144 9.33337 19.8333M4.66671 19.8333H2.33337V6.99992C2.33337 6.6905 2.45629 6.39375 2.67508 6.17496C2.89388 5.95617 3.19062 5.83325 3.50004 5.83325H19.8334C21.3805 5.83325 22.8642 6.69367 23.9582 8.22521C25.0521 9.75676 25.6667 11.834 25.6667 13.9999M9.33337 19.8333H18.6667M18.6667 19.8333C18.6667 20.4521 18.9125 21.0456 19.3501 21.4832C19.7877 21.9208 20.3812 22.1666 21 22.1666C21.6189 22.1666 22.2124 21.9208 22.65 21.4832C23.0875 21.0456 23.3334 20.4521 23.3334 19.8333M18.6667 19.8333C18.6667 19.2144 18.9125 18.6209 19.3501 18.1833C19.7877 17.7458 20.3812 17.4999 21 17.4999C21.6189 17.4999 22.2124 17.7458 22.65 18.1833C23.0875 18.6209 23.3334 19.2144 23.3334 19.8333M23.3334 19.8333H25.6667V13.9999M25.6667 13.9999H20.4167L18.6667 5.83325M2.33337 11.6666H19.8334M8.16671 5.83325V11.6666M14 5.83325V11.6666" stroke="#308CFB" stroke-width="2" stroke-linecap="round" stroke-linejoin="round"/>
</g>
</svg>
