<svg width="20" height="20" viewBox="0 0 20 20" fill="none" xmlns="http://www.w3.org/2000/svg">
<g id="vuesax/broken/shopping-cart">
<g id="shopping-cart">
<path id="Vector" d="M3.95838 11.6417C3.84172 13.0001 4.91671 14.1667 6.28338 14.1667H15.1584C16.3584 14.1667 17.4084 13.1834 17.5 11.9917L17.95 5.74174C18.05 4.35841 17 3.2334 15.6084 3.2334H4.85005" stroke="#308CFB" stroke-width="1.5" stroke-miterlimit="10" stroke-linecap="round" stroke-linejoin="round"/>
<path id="Vector_2" d="M1.66675 1.6665H3.11675C4.01675 1.6665 4.72508 2.4415 4.65008 3.33317L4.23342 8.37483" stroke="#308CFB" stroke-width="1.5" stroke-miterlimit="10" stroke-linecap="round" stroke-linejoin="round"/>
<path id="Vector_3" d="M13.5417 18.3333C14.117 18.3333 14.5833 17.867 14.5833 17.2917C14.5833 16.7164 14.117 16.25 13.5417 16.25C12.9664 16.25 12.5 16.7164 12.5 17.2917C12.5 17.867 12.9664 18.3333 13.5417 18.3333Z" stroke="#308CFB" stroke-width="1.5" stroke-miterlimit="10" stroke-linecap="round" stroke-linejoin="round"/>
<path id="Vector_4" d="M6.87492 18.3333C7.45022 18.3333 7.91659 17.867 7.91659 17.2917C7.91659 16.7164 7.45022 16.25 6.87492 16.25C6.29962 16.25 5.83325 16.7164 5.83325 17.2917C5.83325 17.867 6.29962 18.3333 6.87492 18.3333Z" stroke="#308CFB" stroke-width="1.5" stroke-miterlimit="10" stroke-linecap="round" stroke-linejoin="round"/>
<path id="Vector_5" d="M7.5 6.6665H17.5" stroke="#308CFB" stroke-width="1.5" stroke-miterlimit="10" stroke-linecap="round" stroke-linejoin="round"/>
</g>
</g>
</svg>
