<svg width="28" height="28" viewBox="0 0 28 28" fill="none" xmlns="http://www.w3.org/2000/svg">
<g id="helicopter">
<path id="Vector" d="M3.5 11.6667L4.66667 14H11.6667M15.1667 10.5V7M5.83333 7H23.3333M17.5 10.6167V15.1667H23.9167M17.5 22.1667V18.6667M22.1667 22.1667H12.8333M14 10.5C13.3812 10.5 12.7877 10.7458 12.3501 11.1834C11.9125 11.621 11.6667 12.2145 11.6667 12.8333V16.3333C11.6667 17.6167 12.7167 18.6667 14 18.6667H22.1667C22.7855 18.6667 23.379 18.4208 23.8166 17.9832C24.2542 17.5457 24.5 16.9522 24.5 16.3333C24.5 12.4717 20.8483 10.5 16.3333 10.5H14Z" stroke="#308CFB" stroke-width="2" stroke-linecap="round" stroke-linejoin="round"/>
</g>
</svg>
