<svg width="14" height="14" viewBox="0 0 14 14" fill="none" xmlns="http://www.w3.org/2000/svg">
<g id="vuesax/broken/messages-2">
<g id="messages-2">
<path id="Vector" d="M7.68257 1.1665C4.83591 1.1665 2.53174 3.319 2.53174 5.97316C2.53174 6.12483 2.53758 6.27067 2.55508 6.4165C3.07424 6.07817 3.69841 5.88569 4.37507 5.88569C6.14841 5.88569 7.58341 7.22733 7.58341 8.88399C7.58341 9.57816 7.32675 10.2198 6.89508 10.7273C7.15175 10.7623 7.41424 10.7798 7.68257 10.7798L10.1267 12.2323C10.5409 12.4832 11.0601 12.1448 11.0017 11.6607L10.7742 9.81735C12.0226 8.94235 12.8334 7.54816 12.8334 5.97316C12.8334 4.18233 11.7834 2.61901 10.2201 1.79067" stroke="#84BAFB" stroke-linecap="round" stroke-linejoin="round"/>
<path id="Vector_2" d="M2.55508 6.41656C3.07425 6.07823 3.69841 5.88574 4.37508 5.88574C6.14842 5.88574 7.58342 7.22738 7.58342 8.88405C7.58342 9.57822 7.32675 10.2199 6.89509 10.7274C6.31759 11.4274 5.40175 11.8766 4.37508 11.8766L2.85258 12.7807C2.59591 12.9382 2.26925 12.7224 2.30425 12.4249L2.45008 11.2757C1.66841 10.7332 1.16675 9.86405 1.16675 8.88405C1.16675 8.70905 1.18425 8.53988 1.21342 8.37655" stroke="#84BAFB" stroke-linecap="round" stroke-linejoin="round"/>
</g>
</g>
</svg>
