<svg width="28" height="28" viewBox="0 0 28 28" fill="none" xmlns="http://www.w3.org/2000/svg">
<g id="moped">
<path id="Vector" d="M5.83333 18.6666V19.8333C5.83333 20.4521 6.07917 21.0456 6.51675 21.4832C6.95434 21.9208 7.54783 22.1666 8.16667 22.1666C8.78551 22.1666 9.379 21.9208 9.81658 21.4832C10.2542 21.0456 10.5 20.4521 10.5 19.8333V13.9999H7C6.07174 13.9999 5.1815 14.3687 4.52513 15.025C3.86875 15.6814 3.5 16.5717 3.5 17.4999V18.6666H15.1667C15.5991 17.4173 16.3764 16.3159 17.4088 15.4901C18.4411 14.6642 19.6862 14.1475 21 13.9999V8.16659C21 7.54775 20.7542 6.95425 20.3166 6.51667C19.879 6.07908 19.2855 5.83325 18.6667 5.83325H17.5M7 10.4999H10.5M18.6667 19.8333C18.6667 20.4521 18.9125 21.0456 19.3501 21.4832C19.7877 21.9208 20.3812 22.1666 21 22.1666C21.6188 22.1666 22.2123 21.9208 22.6499 21.4832C23.0875 21.0456 23.3333 20.4521 23.3333 19.8333C23.3333 19.2144 23.0875 18.6209 22.6499 18.1833C22.2123 17.7458 21.6188 17.4999 21 17.4999C20.3812 17.4999 19.7877 17.7458 19.3501 18.1833C18.9125 18.6209 18.6667 19.2144 18.6667 19.8333Z" stroke="#E0EDFD" stroke-width="2" stroke-linecap="round" stroke-linejoin="round"/>
</g>
</svg>
