<svg width="16" height="72" viewBox="0 0 16 72" fill="none" xmlns="http://www.w3.org/2000/svg">
<path id="Union" fill-rule="evenodd" clip-rule="evenodd" d="M9.13584 15.1244C12.6347 14.4274 15.2717 11.3396 15.2717 7.63584C15.2717 3.41868 11.853 0 7.63584 0C3.41868 0 0 3.41868 0 7.63584C0 11.3396 2.63695 14.4274 6.13584 15.1244V58.6069C5.88757 58.8093 5.67178 59.0676 5.50636 59.3818L4.73472 60.853C4.52558 61.2496 4.69145 61.7328 5.10251 61.9203L11.0737 64.6102C11.7444 64.9131 12.4223 64.1919 12.0762 63.5429L9.89103 59.3818C9.69827 59.0157 9.43709 58.7255 9.13584 58.5111V15.1244ZM11.7201 7.63587C11.7201 9.89156 9.8915 11.7202 7.63581 11.7202C5.38012 11.7202 3.55152 9.89156 3.55152 7.63587C3.55152 5.38018 5.38012 3.55158 7.63581 3.55158C9.8915 3.55158 11.7201 5.38018 11.7201 7.63587ZM4.07845 71.7281L6.5881 70.4733C7.28762 70.1271 8.10254 70.1271 8.80206 70.4733L11.3117 71.7281C13.468 72.8026 15.7324 70.4877 14.6074 68.3603L14.0161 67.2497C13.9367 67.0982 13.8069 66.9756 13.6483 66.9035L4.53278 62.7929C4.15778 62.627 3.71787 62.7785 3.53037 63.139L0.782736 68.3603C-0.342278 70.4877 1.92938 72.8026 4.07845 71.7281Z" fill="url(#paint0_linear_119_794)"/>
<defs>
<linearGradient id="paint0_linear_119_794" x1="12.5751" y1="1.8" x2="-27.0044" y2="34.5469" gradientUnits="userSpaceOnUse">
<stop stop-color="#308CFB"/>
<stop offset="1" stop-color="#C2DCFB"/>
</linearGradient>
</defs>
</svg>
